 <svg  version="1.0" xmlns="http://www.w3.org/2000/svg"  width="225.000000pt" height="225.000000pt" viewBox="0 0 225.000000 225.000000"  preserveAspectRatio="xMidYMid meet">  <g transform="translate(0.000000,225.000000) scale(0.100000,-0.100000)" fill="#ff0000" stroke="none"> <path d="M1020 2003 c-53 -20 -69 -94 -29 -134 23 -23 89 -24 97 0 3 10 -3 12 -26 6 -24 -5 -35 -2 -51 14 -37 37 -24 79 28 89 18 4 33 12 34 17 2 11 -31 17 -53 8z"/> <path d="M1110 1930 c0 -64 3 -80 15 -80 12 0 15 16 15 80 0 64 -3 80 -15 80 -12 0 -15 -16 -15 -80z"/> <path d="M1187 1932 c-15 -37 -27 -70 -27 -74 0 -17 21 -6 31 15 14 30 56 26 61 -6 2 -12 12 -23 22 -25 14 -3 17 0 13 12 -4 9 -12 46 -19 81 -10 55 -15 65 -32 65 -16 0 -27 -15 -49 -68z m57 6 c5 -24 3 -28 -14 -28 -22 0 -25 12 -9 42 12 23 14 22 23 -14z"/> <path d="M1300 1981 c0 -5 9 -13 20 -16 24 -8 24 -6 5 -75 -8 -30 -15 -56 -15 -57 0 -2 7 -3 15 -3 8 0 17 12 21 28 19 86 20 87 44 87 44 1 31 21 -21 33 -61 14 -69 15 -69 3z"/> <path d="M842 1970 c-70 -29 -40 -150 37 -150 67 0 89 88 35 138 -27 24 -37 26 -72 12z m64 -46 c36 -54 -23 -115 -60 -62 -19 27 -21 59 -4 76 20 20 46 14 64 -14z"/> <path d="M1419 1884 c-20 -59 -23 -74 -12 -78 8 -3 16 0 18 7 10 26 45 130 45 132 0 2 -6 5 -13 8 -8 3 -21 -20 -38 -69z"/> <path d="M702 1914 c-42 -29 -22 -74 34 -74 18 0 36 -5 39 -10 9 -15 -14 -40 -36 -40 -11 0 -19 -6 -19 -14 0 -19 44 -9 66 15 11 12 14 27 10 44 -5 20 -12 25 -40 25 -18 0 -39 7 -46 15 -10 12 -7 17 14 26 27 13 35 29 13 29 -7 0 -23 -7 -35 -16z"/> <path d="M1491 1886 c-47 -50 -20 -126 45 -126 40 0 74 38 74 85 0 63 -74 89 -119 41z m89 -15 c11 -22 5 -47 -18 -73 -20 -24 -49 -23 -62 1 -14 27 -13 35 11 65 24 31 54 34 69 7z"/> <path d="M602 1867 c-48 -22 -35 -90 17 -87 43 3 51 1 51 -15 0 -9 -11 -21 -25 -27 -29 -13 -33 -28 -7 -28 10 0 29 11 42 25 20 21 22 28 12 49 -9 20 -20 25 -54 28 -47 3 -56 17 -20 33 12 5 22 13 22 17 0 13 -15 15 -38 5z"/> <path d="M1650 1817 c-13 -18 -34 -46 -47 -63 -19 -26 -21 -33 -9 -37 9 -4 25 10 45 41 l31 47 -2 -70 c-2 -49 1 -70 9 -70 12 0 93 102 93 117 0 22 -28 4 -50 -32 -24 -38 -44 -54 -35 -27 2 6 6 35 9 63 8 65 -11 77 -44 31z"/> <path d="M465 1768 c-3 -7 8 -45 23 -85 20 -52 32 -69 41 -64 10 7 11 13 1 31 -6 12 -10 23 -8 24 2 1 11 7 20 15 13 9 22 10 38 1 14 -8 26 -8 32 -2 5 5 -15 25 -55 50 -67 44 -85 50 -92 30z m63 -41 c9 -7 10 -13 0 -24 -10 -12 -14 -11 -24 9 -23 40 -15 45 24 15z"/> <path d="M1090 1715 c0 -30 5 -47 14 -51 20 -8 87 38 81 54 -3 8 -5 20 -5 28 0 10 -13 14 -45 14 l-45 0 0 -45z"/> <path d="M1128 1639 c-40 -21 -48 -36 -23 -45 21 -9 85 34 78 52 -7 18 -10 17 -55 -7z"/> <path d="M1824 1632 c-29 -23 -45 -57 -37 -79 20 -58 82 -71 127 -27 33 33 34 73 3 102 -28 26 -64 28 -93 4z m85 -26 c15 -18 1 -49 -34 -72 -29 -19 -65 -4 -65 26 0 46 72 79 99 46z"/> <path d="M291 1582 c-12 -17 -21 -32 -21 -35 0 -12 121 -87 131 -81 7 4 1 15 -17 30 -23 18 -26 25 -17 35 10 10 18 10 38 1 15 -7 31 -10 36 -7 18 12 8 24 -24 30 -20 4 -37 15 -42 28 -16 35 -59 34 -84 -1z m63 -35 c-8 -21 -13 -21 -39 -1 -20 15 -20 15 0 30 16 12 21 12 32 1 8 -7 11 -21 7 -30z"/> <path d="M1127 1567 c-39 -23 -46 -50 -12 -54 29 -4 77 39 69 60 -8 21 -11 21 -57 -6z"/> <path d="M1923 1492 c-35 -21 -63 -43 -63 -49 0 -17 11 -16 39 4 22 15 25 15 37 -2 7 -10 15 -23 17 -29 2 -6 8 -8 12 -3 5 4 2 19 -5 33 -12 22 -12 27 0 34 22 14 26 13 39 -17 8 -17 15 -23 22 -16 7 7 3 22 -11 47 -12 20 -23 36 -23 35 -1 0 -30 -17 -64 -37z"/> <path d="M223 1472 l-22 -39 68 -36 68 -37 21 39 c25 44 26 51 12 51 -6 0 -16 -11 -22 -25 -12 -26 -24 -30 -47 -16 -11 7 -10 13 3 34 11 16 13 27 7 32 -6 3 -16 -6 -23 -20 -7 -15 -18 -24 -27 -23 -16 4 -17 16 -5 56 10 35 -9 26 -33 -16z"/> <path d="M1133 1487 c-45 -22 -57 -47 -23 -47 34 0 68 22 73 46 5 29 4 29 -50 1z"/> <path d="M1120 1414 c-25 -7 -64 -13 -87 -13 l-43 -1 0 -45 0 -46 22 21 c22 20 65 37 73 28 3 -2 9 -80 15 -174 16 -240 18 -254 39 -254 22 0 31 41 31 140 0 36 3 116 7 178 l6 112 30 0 c18 0 41 -10 55 -22 21 -20 24 -20 19 -5 -4 10 -7 32 -7 48 0 28 -1 29 -45 22 -38 -5 -45 -3 -45 11 0 18 -8 18 -70 0z m45 -41 c-4 -10 -13 -45 -20 -78 -9 -41 -13 -51 -14 -30 -1 17 -6 47 -12 69 -12 42 -3 56 35 56 13 0 16 -4 11 -17z"/> <path d="M171 1367 c-21 -64 12 -107 83 -107 39 0 66 28 66 67 0 31 -16 29 -24 -2 -10 -38 -48 -52 -82 -31 -25 17 -28 33 -13 85 9 31 -20 19 -30 -12z"/> <path d="M2075 1281 l7 -40 -67 26 c-36 14 -68 23 -71 20 -9 -9 27 -117 38 -111 9 6 6 31 -8 67 -4 11 11 9 66 -11 39 -13 72 -23 74 -21 7 7 -28 109 -37 109 -5 0 -6 -18 -2 -39z"/> <path d="M130 1237 c0 -16 29 -27 73 -27 45 0 31 -14 -33 -33 -62 -18 -80 -42 -37 -52 128 -29 127 -29 127 -12 0 9 -21 17 -57 23 l-58 10 65 20 c88 27 91 47 9 63 -33 7 -67 15 -75 18 -8 3 -14 -1 -14 -10z"/> <path d="M2033 1167 c-45 -7 -63 -14 -63 -25 0 -11 7 -13 29 -9 15 3 52 9 80 13 31 4 50 11 48 18 -5 15 -20 15 -94 3z"/> <path d="M905 1142 c-102 -49 -168 -141 -180 -253 -9 -79 13 -115 99 -158 71 -35 78 -59 13 -47 -61 11 -127 64 -152 120 -17 38 -25 47 -30 34 -14 -35 73 -150 132 -175 18 -7 68 -13 113 -13 47 0 80 -4 80 -10 0 -6 -40 -10 -102 -9 -57 0 -116 -4 -131 -10 -16 -6 -52 -11 -80 -12 -61 -1 -97 -11 -78 -23 12 -8 151 -1 219 11 41 7 42 -11 1 -26 -32 -11 -149 -100 -149 -113 0 -16 22 -7 94 37 41 25 84 45 96 45 22 0 22 0 -3 -33 -26 -34 -53 -137 -43 -164 9 -23 36 3 36 34 0 27 41 113 63 131 13 11 84 39 117 47 8 2 32 10 52 19 21 9 39 16 41 16 7 0 17 -109 18 -202 1 -49 5 -88 9 -88 4 0 10 64 14 142 4 79 9 145 12 147 2 2 25 -4 51 -15 27 -10 50 -19 53 -19 19 -3 89 -30 107 -41 27 -17 73 -104 73 -137 0 -28 24 -54 35 -38 12 20 -16 134 -42 168 -25 33 -25 33 -3 33 12 0 55 -20 96 -45 71 -44 99 -54 92 -36 -6 17 -118 102 -148 112 -40 15 -39 33 3 26 75 -13 217 -19 217 -9 0 15 -26 22 -80 22 -27 0 -61 5 -77 11 -15 6 -74 10 -130 10 -63 -1 -103 3 -103 9 0 6 33 10 80 10 45 0 95 6 113 13 59 25 146 140 132 175 -5 13 -12 5 -29 -30 -13 -26 -34 -57 -47 -68 -32 -28 -99 -60 -126 -60 -44 0 -32 20 31 49 102 49 123 102 87 219 -39 128 -157 222 -279 222 -33 0 -51 -4 -47 -10 3 -5 19 -10 36 -10 16 0 29 -4 29 -10 0 -5 -14 -10 -31 -10 -39 0 -29 -17 16 -26 52 -9 109 -56 135 -109 12 -25 35 -56 51 -67 35 -26 37 -44 7 -53 -13 -4 -33 -17 -46 -28 l-22 -21 -30 22 c-17 12 -42 31 -57 42 -16 10 -51 22 -80 26 -51 6 -52 6 -69 -27 -15 -31 -18 -32 -28 -16 -29 49 -30 50 -84 42 -36 -5 -65 -18 -103 -46 -29 -21 -56 -39 -60 -39 -5 0 -16 8 -26 19 -10 10 -28 22 -40 25 -31 10 -29 31 6 55 16 12 39 42 51 67 26 52 83 99 135 108 45 9 55 26 16 26 -17 0 -31 5 -31 10 0 6 13 10 29 10 17 0 33 5 36 10 4 6 -14 10 -47 10 -37 0 -71 -8 -113 -28z m18 -44 c-18 -13 -44 -43 -58 -68 -22 -40 -89 -120 -99 -120 -3 0 -2 12 0 28 9 46 62 119 112 151 54 35 93 43 45 9z m472 3 c74 -46 127 -127 139 -211 9 -60 -17 -102 -81 -133 -33 -15 -53 -32 -63 -54 -11 -25 -22 -33 -41 -33 -15 0 -33 -7 -40 -16 -11 -14 -10 -18 6 -31 11 -7 34 -13 50 -12 64 4 73 1 68 -26 -9 -46 -24 -48 -127 -11 -124 45 -207 44 -336 -3 -91 -33 -105 -31 -112 19 -3 24 -1 25 47 22 34 -2 56 2 70 12 20 16 20 16 1 31 -11 8 -29 15 -40 15 -14 0 -26 12 -36 33 -10 21 -30 39 -57 52 -68 32 -106 88 -89 132 6 14 11 12 34 -15 15 -17 45 -40 66 -51 43 -22 53 -20 132 34 44 30 88 32 129 5 29 -19 29 -19 61 0 45 29 82 25 144 -15 67 -43 96 -44 146 -4 58 46 61 55 25 97 -18 21 -40 50 -49 66 -9 16 -34 49 -56 73 -41 46 -39 54 9 24z"/> <path d="M1984 1101 c-13 -14 3 -20 59 -23 l62 -3 -57 -18 c-32 -10 -58 -23 -58 -31 0 -7 23 -18 55 -26 65 -16 63 -30 -6 -30 -35 0 -49 -4 -49 -14 0 -11 11 -13 43 -10 96 11 107 14 107 34 0 12 -7 20 -17 21 -10 0 -36 6 -58 13 l-40 13 58 18 c40 13 57 24 57 36 0 15 -12 18 -76 21 -42 2 -78 1 -80 -1z"/> <path d="M165 1061 c-44 -13 -61 -23 -63 -37 -2 -15 11 -24 73 -46 58 -21 75 -24 75 -13 0 7 -9 17 -20 20 -28 9 -29 65 -1 65 10 0 21 7 25 15 7 19 -10 18 -89 -4z m25 -41 c0 -23 0 -23 -37 -9 l-28 12 25 7 c38 12 40 11 40 -10z"/> <path d="M230 907 c0 -42 -15 -57 -57 -57 -34 0 -53 21 -53 59 0 12 -4 21 -10 21 -18 0 -11 -57 11 -84 53 -67 164 -2 133 78 -10 27 -24 18 -24 -17z"/> <path d="M1982 875 c3 -55 25 -78 55 -59 13 8 23 8 35 0 27 -17 52 4 56 47 3 39 4 38 -101 53 l-48 6 3 -47z m68 3 c0 -23 -18 -41 -34 -35 -9 4 -16 16 -16 27 0 15 7 20 25 20 14 0 25 -6 25 -12z m58 -20 c-2 -13 -10 -23 -18 -23 -8 0 -16 10 -18 23 -3 17 2 22 18 22 16 0 21 -5 18 -22z"/> <path d="M1964 798 c-4 -6 3 -18 14 -27 29 -22 20 -59 -16 -63 -14 -2 -27 -9 -30 -16 -3 -11 9 -13 59 -8 35 2 74 5 87 5 14 1 22 7 22 19 0 22 -126 106 -136 90z m79 -86 c-30 -4 -38 2 -29 23 5 14 8 14 30 -2 l24 -18 -25 -3z"/> <path d="M272 708 c3 -13 7 -30 9 -38 3 -9 -4 -16 -18 -18 -17 -2 -24 3 -29 23 -3 14 -11 24 -18 22 -6 -3 -9 -11 -7 -18 2 -8 6 -21 8 -30 3 -9 -3 -19 -12 -23 -12 -4 -19 2 -27 24 -10 31 -28 41 -28 15 0 -11 14 -50 25 -73 1 -1 33 10 72 24 l71 26 -15 44 c-15 45 -39 62 -31 22z"/> <path d="M1911 644 c-24 -54 -4 -103 37 -90 13 4 22 1 26 -9 9 -23 42 -18 65 11 24 30 27 50 9 57 -7 3 -38 17 -69 30 l-56 26 -12 -25z m58 -45 c-19 -36 -60 -12 -45 26 4 12 10 13 30 4 21 -10 23 -15 15 -30z m56 -9 c4 -6 1 -18 -6 -26 -11 -13 -14 -13 -27 0 -8 8 -11 19 -8 25 9 14 33 14 41 1z"/> <path d="M258 581 c-49 -27 -64 -41 -58 -50 6 -11 12 -11 31 3 31 21 34 21 48 -11 11 -23 10 -29 -5 -40 -9 -7 -22 -14 -28 -16 -7 -3 -8 -8 -1 -15 15 -16 147 59 136 77 -7 11 -14 10 -36 -5 -27 -17 -27 -17 -46 7 -17 21 -17 25 -3 34 42 27 49 34 39 43 -6 6 -34 -4 -77 -27z"/> <path d="M1851 527 c-7 -7 3 -26 30 -59 l41 -48 -53 25 c-39 18 -56 21 -66 13 -10 -8 -6 -18 21 -48 19 -21 42 -50 52 -65 15 -23 18 -25 27 -10 7 13 0 27 -34 62 l-44 44 59 -26 c79 -35 93 -18 34 42 -23 24 -39 43 -36 43 4 0 27 -9 53 -20 54 -23 65 -25 65 -7 0 17 -136 67 -149 54z"/> <path d="M366 427 c-42 -36 -49 -39 -58 -24 -8 16 -38 24 -38 11 0 -13 73 -93 81 -88 5 3 3 14 -3 24 -7 11 -10 21 -8 23 3 2 26 20 52 39 36 27 45 38 35 46 -9 7 -25 -1 -61 -31z"/> <path d="M1723 370 c-19 -17 -28 -32 -22 -36 6 -3 21 4 33 15 21 19 24 20 36 6 11 -13 10 -19 -5 -35 -9 -10 -14 -24 -10 -31 6 -8 13 -5 25 12 16 20 20 21 34 10 15 -13 15 -16 -4 -36 -41 -44 -16 -49 28 -6 l29 30 -51 50 c-29 28 -54 51 -56 51 -3 0 -19 -14 -37 -30z"/> </g> </svg> 